/* XPM */
static char * wall_xpm[] = {
"50 50 320 2",
"  	c #99ACB9",
". 	c #9AABB9",
"+ 	c #9AADB8",
"@ 	c #94A7B4",
"# 	c #778697",
"$ 	c #96A8B6",
"% 	c #99ABB6",
"& 	c #99ABB9",
"* 	c #99AABA",
"= 	c #93A3AF",
"- 	c #616E7B",
"; 	c #7C8E9B",
"> 	c #BCCFDE",
", 	c #BCCFDC",
"' 	c #BDD0DF",
") 	c #B1C6D4",
"! 	c #6D7888",
"~ 	c #6B7986",
"{ 	c #B3C9D6",
"] 	c #BDCEE0",
"^ 	c #BCCFDD",
"/ 	c #BDD1E1",
"( 	c #A9B8C9",
"_ 	c #5F6B7A",
": 	c #7E8E9D",
"< 	c #A9BECF",
"[ 	c #AABFD0",
"} 	c #A5B8C9",
"| 	c #6D7B89",
"1 	c #6D7A8B",
"2 	c #A3BACB",
"3 	c #AABFD1",
"4 	c #AAC1D1",
"5 	c #9EAEBF",
"6 	c #606C7B",
"7 	c #7E8D9E",
"8 	c #ABC0D1",
"9 	c #A5B9CA",
"0 	c #6D7A88",
"a 	c #6E7A89",
"b 	c #A5BBCC",
"c 	c #ABC2D2",
"d 	c #9EAFBF",
"e 	c #7E8E9E",
"f 	c #A6B9CA",
"g 	c #6C7B88",
"h 	c #6D7A89",
"i 	c #ACC0D2",
"j 	c #9DB0BF",
"k 	c #ABC0D0",
"l 	c #ABC2D0",
"m 	c #A6B9CB",
"n 	c #6D7989",
"o 	c #A7BACD",
"p 	c #ABC0D3",
"q 	c #ACC3D2",
"r 	c #9DB1C0",
"s 	c #A6BBCB",
"t 	c #A8BBCB",
"u 	c #A8BBCC",
"v 	c #A2B5C6",
"w 	c #707D8C",
"x 	c #717D8D",
"y 	c #A2B5C8",
"z 	c #A7BCCB",
"A 	c #A7BBCC",
"B 	c #9CADBD",
"C 	c #606D7C",
"D 	c #707E8E",
"E 	c #707D8D",
"F 	c #6F7D8C",
"G 	c #6F7E8D",
"H 	c #74808E",
"I 	c #74808F",
"J 	c #707E8D",
"K 	c #727F8E",
"L 	c #5F6A78",
"M 	c #717D8B",
"N 	c #657382",
"O 	c #667382",
"P 	c #677584",
"Q 	c #64707E",
"R 	c #626B7B",
"S 	c #677582",
"T 	c #657383",
"U 	c #667383",
"V 	c #657384",
"W 	c #677382",
"X 	c #697887",
"Y 	c #5F6674",
"Z 	c #697585",
"` 	c #667380",
" .	c #687584",
"..	c #BACCDA",
"+.	c #BACDDB",
"@.	c #B0C3D1",
"#.	c #748390",
"$.	c #6A7585",
"%.	c #ACBFCE",
"&.	c #BCCEDD",
"*.	c #BDD1DF",
"=.	c #91A4B2",
"-.	c #616C77",
";.	c #92A4B5",
">.	c #BCD0DC",
",.	c #B1C7D7",
"'.	c #B2C6D8",
").	c #A9BDCE",
"!.	c #73808F",
"~.	c #697486",
"{.	c #B4C7D8",
"].	c #B5CADA",
"^.	c #8EA0B0",
"/.	c #616A78",
"(.	c #8EA1B1",
"_.	c #B6CAD9",
":.	c #B1C5D7",
"<.	c #738191",
"[.	c #697684",
"}.	c #A1B4C6",
"|.	c #ACC0D1",
"1.	c #A9C0CF",
"2.	c #ADC2D4",
"3.	c #8C9DAF",
"4.	c #616B7A",
"5.	c #8C9FB0",
"6.	c #ADC1D1",
"7.	c #A9BFD0",
"8.	c #A1B4C7",
"9.	c #AAC0D0",
"0.	c #AEC3D4",
"a.	c #8E9EAF",
"b.	c #616B79",
"c.	c #8D9FB0",
"d.	c #AEC2D2",
"e.	c #ABBFD0",
"f.	c #A0B4C7",
"g.	c #ACC1D1",
"h.	c #ACBFD0",
"i.	c #AFC3D4",
"j.	c #ACC2D2",
"k.	c #AAC2D1",
"l.	c #ACC1D2",
"m.	c #A5B9CB",
"n.	c #728191",
"o.	c #6A7685",
"p.	c #A1B5C6",
"q.	c #ACC3D3",
"r.	c #AFC4D5",
"s.	c #8B9EAF",
"t.	c #8D9FB1",
"u.	c #AEC3D3",
"v.	c #ABC0D2",
"w.	c #9EB4C3",
"x.	c #A0B3C3",
"y.	c #9BAEBE",
"z.	c #738293",
"A.	c #6A7887",
"B.	c #98ABBE",
"C.	c #9FB3C3",
"D.	c #A1B4C5",
"E.	c #899AAB",
"F.	c #616C7A",
"G.	c #8A9CAD",
"H.	c #626C7B",
"I.	c #636D7C",
"J.	c #616A77",
"K.	c #5F6975",
"L.	c #626E7C",
"M.	c #626C7A",
"N.	c #636C7B",
"O.	c #616C7B",
"P.	c #606E7A",
"Q.	c #626D7B",
"R.	c #636D7B",
"S.	c #616E79",
"T.	c #636C7A",
"U.	c #616B78",
"V.	c #7B8895",
"W.	c #5C6875",
"X.	c #636D7D",
"Y.	c #636E7D",
"Z.	c #718393",
"`.	c #728394",
" +	c #758494",
".+	c #6C7889",
"++	c #6F798A",
"@+	c #768394",
"#+	c #748192",
"$+	c #718392",
"%+	c #718191",
"&+	c #758897",
"*+	c #718493",
"=+	c #738391",
"-+	c #798794",
";+	c #606D7B",
">+	c #768695",
",+	c #D3E5F3",
"'+	c #D4E6F3",
")+	c #D2E7F4",
"!+	c #C5D9E5",
"~+	c #6A7987",
"{+	c #6B7985",
"]+	c #C6DBE9",
"^+	c #D4E5F3",
"/+	c #D3E6F3",
"(+	c #D3E4F3",
"_+	c #D5E7F7",
":+	c #B6C8D8",
"<+	c #5E6A79",
"[+	c #81919D",
"}+	c #A9BDCF",
"|+	c #A9BDD0",
"1+	c #A3B7C8",
"2+	c #6D798B",
"3+	c #6D7A8A",
"4+	c #A3B9CC",
"5+	c #A9BDD1",
"6+	c #AABED1",
"7+	c #9DAEBF",
"8+	c #606C7C",
"9+	c #7C8D9E",
"0+	c #6D7B88",
"a+	c #6E7A8A",
"b+	c #A9C1D2",
"c+	c #6C7A89",
"d+	c #A5BACC",
"e+	c #A9C1D1",
"f+	c #616B7B",
"g+	c #7E8C9E",
"h+	c #ACC2D4",
"i+	c #ACC2D3",
"j+	c #6C7B8A",
"k+	c #A9BCCD",
"l+	c #AEC2D4",
"m+	c #A0B2C1",
"n+	c #7D8E9E",
"o+	c #8DA0AF",
"p+	c #8DA0B0",
"q+	c #8CA0AF",
"r+	c #8EA0AF",
"s+	c #8E9FB0",
"t+	c #6F7D8A",
"u+	c #717F8C",
"v+	c #8D9EAE",
"w+	c #8E9FAF",
"x+	c #8DA1B1",
"y+	c #8A9CAC",
"z+	c #626E7D",
"A+	c #7D8C9D",
"B+	c #606B7A",
"C+	c #5F6C79",
"D+	c #616A79",
"E+	c #5F6D79",
"F+	c #606B78",
"G+	c #606A77",
"H+	c #5F6A79",
"I+	c #626D7C",
"J+	c #606975",
"K+	c #606C77",
"L+	c #606B79",
"M+	c #5E6877",
"N+	c #99ABBA",
"O+	c #99ACBB",
"P+	c #96A9B8",
"Q+	c #73828F",
"R+	c #6B7786",
"S+	c #95A6B4",
"T+	c #9BACBB",
"U+	c #9AADBC",
"V+	c #9AACBB",
"W+	c #9AABBA",
"X+	c #9CAEBD",
"Y+	c #899AAA",
"Z+	c #626D79",
"`+	c #8999A8",
" @	c #9CADBB",
".@	c #99ABBB",
"+@	c #9BADBC",
"@@	c #C3D6E5",
"#@	c #C4D7E6",
"$@	c #B7CBDA",
"%@	c #72818F",
"&@	c #677385",
"*@	c #B2C6D5",
"=@	c #C3D6E4",
"-@	c #C6D9E8",
";@	c #92A5B4",
">@	c #606B77",
",@	c #95A6B8",
"'@	c #C5D9E8",
")@	c #A8BED0",
"!@	c #A8BDD0",
"~@	c #A9C0D1",
"{@	c #A0B3C6",
"]@	c #ABBFD1",
"^@	c #A8BFD0",
"/@	c #8D9EB0",
"(@	c #ACC0D0",
"_@	c #8E9FB1",
":@	c #A6B8C9",
"<@	c #B0C3D4",
"[@	c #AEC2D1",
"}@	c #6A7684",
"|@	c #A1B5C7",
"1@	c #ADC2D2",
"2@	c #AFC2D3",
"3@	c #8C9EAF",
"4@	c #8D9FB2",
"5@	c #AEC2D3",
"6@	c #A4B9CB",
"7@	c #A6BACB",
"8@	c #9FB3C4",
"9@	c #738090",
"0@	c #697685",
"a@	c #9CB0C2",
"b@	c #A6BACA",
"c@	c #8C9DAE",
"d@	c #8B9DAE",
"e@	c #A8BCCC",
"                                  . + @ # # $ % & & & & & & & & & & & & & & & & & & & & & & * = - ; ",
"> > > > > > > > > > > > > > > > > , ' ) ! ~ { ] ^ > > > > > > > > > > > > > > > > > > > > ^ / ( _ : ",
"< < < < < < < < < < < < < < < < < < [ } | 1 2 3 < < < < < < < < < < < < < < < < < < < < < < 4 5 6 7 ",
"[ [ [ [ [ [ [ [ [ [ [ [ [ [ [ [ [ [ 8 9 0 a b 8 [ [ [ [ [ [ [ [ [ [ [ [ [ [ [ [ [ [ [ [ [ [ c d 6 e ",
"[ [ [ [ [ [ [ [ [ [ [ [ [ [ [ [ [ [ 8 9 0 a b 8 [ [ [ [ [ [ [ [ [ [ [ [ [ [ [ [ [ [ [ [ [ [ c d 6 e ",
"[ [ [ [ [ [ [ [ [ [ [ [ [ [ [ [ [ [ 8 9 0 a b 8 [ [ [ [ [ [ [ [ [ [ [ [ [ [ [ [ [ [ [ [ [ [ c d 6 e ",
"[ [ [ [ [ [ [ [ [ [ [ [ [ [ [ [ [ [ 8 9 0 a b 8 [ [ [ [ [ [ [ [ [ [ [ [ [ [ [ [ [ [ [ [ [ [ c d 6 e ",
"[ [ [ [ [ [ [ [ [ [ [ [ [ [ [ [ [ [ 8 9 0 a b 8 [ [ [ [ [ [ [ [ [ [ [ [ [ [ [ [ [ [ [ [ [ [ c d 6 e ",
"[ [ [ [ [ [ [ [ [ [ [ [ [ [ [ [ [ [ 8 f g h b i [ [ [ [ [ [ [ [ [ [ [ [ [ [ [ [ [ [ [ [ [ [ c j 6 e ",
"8 8 8 8 8 8 8 8 8 8 8 8 8 8 8 8 8 k l m n a o p 8 8 8 8 8 8 8 8 8 8 8 8 8 8 8 8 8 8 8 8 8 8 q r 6 e ",
"s s s s s s s s s s s s s s s s s t u v w x y z s s s s s s s s s s s s s s s s s s s s s s A B C e ",
"w w w w w w w w D E w w w w w w w F w G H I G w w w w w w w w w w w J E w w w w w w w w w w w K L M ",
"N N N N N N O P Q R S N T T T T T T T U V T U T T T T T T T T T W X Y Z ` N N N N N N N N N N N  .U ",
"............+.@.#.$.%.&.........................................*.=.-.;.>...........................",
",.,.,.,.,.,.'.).!.~.9 {.,.,.,.,.,.,.,.,.,.,.,.,.,.,.,.,.,.,.,.,.].^./.(._.:.,.,.,.,.,.,.,.,.,.,.,.,.",
"< < < < < < [ } <.[.}.|.< < < < < < < < < < < < < < < < < < < 1.2.3.4.5.6.7.< < < < < < < < < < < < ",
"[ [ [ [ [ [ 8 } <.[.8.|.[ [ [ [ [ [ [ [ [ [ [ [ [ [ [ [ [ [ [ 9.0.a.b.c.d.[ [ [ [ [ [ [ [ [ [ [ [ [ ",
"[ [ [ [ [ [ 8 } <.[.8.|.[ [ [ [ [ [ [ [ [ [ [ [ [ [ [ [ [ [ [ 9.0.a.b.c.d.[ [ [ [ [ [ [ [ [ [ [ [ [ ",
"[ [ [ [ [ [ 8 } <.[.8.|.[ [ [ [ [ [ [ [ [ [ [ [ [ [ [ [ [ [ [ 9.0.a.b.c.d.[ [ [ [ [ [ [ [ [ [ [ [ [ ",
"[ [ [ [ [ [ 8 } <.[.8.|.[ [ [ [ [ [ [ [ [ [ [ [ [ [ [ [ [ [ [ 9.0.a.b.c.d.[ [ [ [ [ [ [ [ [ [ [ [ [ ",
"[ [ [ [ [ [ 8 } <.[.8.|.[ [ [ [ [ [ [ [ [ [ [ [ [ [ [ [ [ [ [ 9.0.a.b.c.d.[ [ [ [ [ [ [ [ [ [ [ [ [ ",
"e.e.e.e.e.[ |.} <.[.f.g.e.e.e.e.e.e.e.e.e.e.e.e.e.e.e.e.e.e.e.h.i.a.b.c.j.e.e.e.e.e.e.e.e.e.e.e.e.e.",
"8 8 8 8 8 k.l.m.n.o.p.q.8 8 8 8 8 8 8 8 8 8 8 8 8 8 8 8 8 8 8 8 r.s.b.t.u.v.8 8 8 8 8 8 8 8 8 8 8 8 ",
"w.w.w.w.w.w.x.y.z.A.B.x.w.w.w.w.w.w.w.w.w.w.w.w.w.w.w.w.w.w.C.C.D.E.F.G.D.w.w.w.w.w.w.w.w.w.w.w.w.w.",
"H.H.H.H.H.H.H.I.J.K.L.M.H.H.H.H.H.N.O.P.Q.R.H.S.T.H.H.H.H.H.H.H.U.V.W.X.H.H.H.H.H.H.H.H.H.T.F.- Y.N.",
"Z.Z.Z.Z.Z.Z.Z.Z.`.`.Z.Z.Z.Z.Z.Z.Z.z.z. +.+++@+#+$+Z.Z.Z.Z.Z.Z.Z.%+&+*+z.z.Z.Z.Z.Z.Z.Z.Z.Z.Z.=+-+;+>+",
",+,+,+,+,+,+,+,+,+,+,+,+,+,+,+,+,+'+)+!+~+{+]+)+^+,+,+,+,+,+,+,+/+(+(+(+(+,+,+,+,+,+,+,+,+^+_+:+<+[+",
"< < < < < < < < < < < < < < < < < }+|+1+2+3+4+5+< < < < < < < < < }+}+}+}+< < < < < < < < < 6+7+8+9+",
"[ [ [ [ [ [ [ [ [ [ [ [ [ [ [ [ [ [ 8 9 0+a+b k [ [ [ [ [ [ [ [ [ [ [ [ [ [ [ [ [ [ [ [ [ [ c d 6 e ",
"[ [ [ [ [ [ [ [ [ [ [ [ [ [ [ [ [ [ 8 9 0 a+b 8 [ [ [ [ [ [ [ [ [ [ [ [ [ [ [ [ [ [ [ [ [ [ c d 6 e ",
"[ [ [ [ [ [ [ [ [ [ [ [ [ [ [ [ [ [ 8 9 0 a+b 8 [ [ [ [ [ [ [ [ [ [ [ [ [ [ [ [ [ [ [ [ [ [ c d 6 e ",
"[ [ [ [ [ [ [ [ [ [ [ [ [ [ [ [ [ [ 8 9 0 a+b 8 [ [ [ [ [ [ [ [ [ [ [ [ [ [ [ [ [ [ [ [ [ [ c d 6 e ",
"[ [ [ [ [ [ [ [ [ [ [ [ [ [ [ [ [ [ 8 9 0 a+b 8 [ [ [ [ [ [ [ [ [ [ [ [ [ [ [ [ [ [ [ [ [ [ c d 6 e ",
"[ [ [ [ [ [ [ [ [ [ [ [ [ [ [ [ [ [ 8 9 0 a+b 8 [ [ [ [ [ [ [ [ [ [ [ [ [ [ [ [ [ [ [ [ [ [ c d 6 e ",
"e.e.e.e.e.e.e.e.e.e.e.e.e.e.e.e.e.[ b+m c+3+d+e+e.e.e.e.e.e.e.e.e.e.e.e.e.e.e.e.e.e.e.e.e.e.c d f+g+",
"h+h+h+h+h+h+h+h+h+h+h+h+h+h+h+h+h+i+i.t j+h k+l+h+h+h+h+h+h+h+h+h+h+h+h+h+h+h+h+h+h+h+h+h+h+0.m+6 n+",
"o+o+o+o+o+o+o+o+p+p+p+o+o+o+o+o+q+r+s+s.t+u+v+w+o+o+o+o+o+o+o+o+o+p+o+p+o+o+o+o+o+o+o+o+o+o+x+y+z+A+",
"B+B+B+B+B+B+B+B+C+D+E+F+B+B+B+B+B+B+B+B+G+H+B+B+B+B+B+B+B+B+B+B+B+I+J+;+K+L+B+B+B+B+B+B+B+B+B+O.M+M.",
"N+N+N+N+N+N+O+P+Q+R+S+T+N+N+N+N+N+N+N+N+U+V+W+N+N+N+N+N+N+N+N+N+X+Y+Z+`+ @.@N+N+N+N+N+N+N+N+N+N++@N+",
"@@@@@@@@@@@@#@$@%@&@*@#@@@@@@@@@@@@@@@@@=@@@@@@@@@@@@@@@@@@@@@@@-@;@>@,@'@@@@@@@@@@@@@@@@@@@@@@@=@@@",
")@)@)@)@)@!@~@1+n.[.{@]@)@)@)@)@)@)@)@)@)@)@)@)@)@)@)@)@)@)@!@^@i+3.4./@(@)@)@)@)@)@)@)@)@)@)@)@)@)@",
"[ [ [ [ [ [ 8 } <.[.8.|.[ [ [ [ [ [ [ [ [ [ [ [ [ [ [ [ [ [ [ 9.0.a.b._@d.[ [ [ [ [ [ [ [ [ [ [ [ [ ",
"[ [ [ [ [ [ 8 } <.[.8.|.[ [ [ [ [ [ [ [ [ [ [ [ [ [ [ [ [ [ [ 9.0.a.b._@d.[ [ [ [ [ [ [ [ [ [ [ [ [ ",
"[ [ [ [ [ [ 8 } <.[.8.|.[ [ [ [ [ [ [ [ [ [ [ [ [ [ [ [ [ [ [ 9.0.a.b._@d.[ [ [ [ [ [ [ [ [ [ [ [ [ ",
"[ [ [ [ [ [ 8 } <.[.8.|.[ [ [ [ [ [ [ [ [ [ [ [ [ [ [ [ [ [ [ 9.0.a.b._@d.[ [ [ [ [ [ [ [ [ [ [ [ [ ",
"[ [ [ [ [ [ 8 } <.[.8.|.[ [ [ [ [ [ [ [ [ [ [ [ [ [ [ [ [ [ [ 9.0.a.b._@d.[ [ [ [ [ [ [ [ [ [ [ [ [ ",
"[ [ [ [ [ [ 8 } <.[.8.|.[ [ [ [ [ [ [ [ [ [ [ [ [ [ [ [ [ [ [ [ i.a.b._@d.[ [ [ [ [ [ [ [ [ [ [ [ [ ",
"[ [ [ [ [ [ |.:@<.[.8.|.[ [ [ [ [ [ [ [ [ [ [ [ [ [ [ [ [ [ [ [ <@w+b._@[@[ [ [ [ [ [ [ [ [ [ [ [ [ ",
"l.l.l.l.l.l.|.f n.}@|@1@l.l.l.l.l.l.l.l.l.l.l.l.l.l.l.l.l.l.l.l.2@3@b.4@5@l.l.l.l.l.l.l.l.l.l.l.l.l.",
"6@6@6@6@6@6@7@8@9@0@a@b@6@6@6@6@6@6@6@6@6@6@6@6@6@6@6@6@6@6@6@6@k+c@6 d@e@6@6@6@6@6@6@6@6@6@6@6@6@6@"};
